<svg width="50" height="50" viewBox="0 0 50 50" fill="none" xmlns="http://www.w3.org/2000/svg">
<circle cx="25" cy="25" r="25" fill="#FFF596"/>
<circle cx="25" cy="25" r="24.5" stroke="#404040" stroke-opacity="0.2"/>
<path d="M23.5 14.5C23.5 15.3284 24.1716 16 25 16C25.8284 16 26.5 15.3284 26.5 14.5H23.5ZM26.0607 12.4393C25.4749 11.8536 24.5251 11.8536 23.9393 12.4393L14.3934 21.9853C13.8076 22.5711 13.8076 23.5208 14.3934 24.1066C14.9792 24.6924 15.9289 24.6924 16.5147 24.1066L25 15.6213L33.4853 24.1066C34.0711 24.6924 35.0208 24.6924 35.6066 24.1066C36.1924 23.5208 36.1924 22.5711 35.6066 21.9853L26.0607 12.4393ZM26.5 14.5V13.5H23.5V14.5H26.5Z" fill="#404040" fill-opacity="0.5"/>
<path d="M23.5 25.5C23.5 26.3284 24.1716 27 25 27C25.8284 27 26.5 26.3284 26.5 25.5H23.5ZM26.0607 23.4393C25.4749 22.8536 24.5251 22.8536 23.9393 23.4393L14.3934 32.9853C13.8076 33.5711 13.8076 34.5208 14.3934 35.1066C14.9792 35.6924 15.9289 35.6924 16.5147 35.1066L25 26.6213L33.4853 35.1066C34.0711 35.6924 35.0208 35.6924 35.6066 35.1066C36.1924 34.5208 36.1924 33.5711 35.6066 32.9853L26.0607 23.4393ZM26.5 25.5V24.5H23.5V25.5H26.5Z" fill="#404040" fill-opacity="0.5"/>
</svg>
