<svg width="37" height="37" viewBox="0 0 37 37" fill="none" xmlns="http://www.w3.org/2000/svg">
<path fill-rule="evenodd" clip-rule="evenodd" d="M2.82842 25.4558L0 28.2843L8.48528 36.7696L36.7696 8.48528L28.2843 4.76837e-07L26.163 2.12132L31.8198 7.77817L31.1127 8.48528L25.4558 2.82843L23.3345 4.94975L26.1629 7.77818L25.4558 8.48529L22.6274 5.65686L20.5061 7.77817L26.163 13.435L25.4558 14.1421L19.799 8.48528L17.6777 10.6066L20.5061 13.435L19.799 14.1421L16.9706 11.3137L14.8492 13.435L20.5061 19.0919L19.799 19.799L14.1421 14.1421L12.0208 16.2635L14.8492 19.0919L14.1421 19.799L11.3137 16.9706L9.19239 19.0919L14.8492 24.7487L14.1421 25.4558L8.48528 19.799L6.36396 21.9203L9.19238 24.7487L8.48528 25.4558L5.65685 22.6274L3.53553 24.7487L9.19238 30.4056L8.48528 31.1127L2.82842 25.4558Z" fill="#D59417"/>
</svg>
