<svg width="29" height="26" viewBox="0 0 29 26" fill="none" xmlns="http://www.w3.org/2000/svg">
<path d="M8 15L10.4529 24.3209C10.4731 24.3978 10.5707 24.4215 10.6239 24.3623L14.9395 19.5672C14.9738 19.5291 15.0315 19.5231 15.0729 19.5535L21.2467 24.0809C21.8334 24.5112 22.6686 24.1907 22.817 23.4784L27.1199 2.82463C27.2826 2.04366 26.5102 1.39593 25.7695 1.6922L2.39639 11.0414C1.5484 11.3806 1.5615 12.5856 2.41666 12.9062L8 15ZM8 15L21.346 7.85035C21.4488 7.79531 21.5466 7.93072 21.4621 8.011L12.2648 16.7484C12.0938 16.9109 11.9857 17.1286 11.9597 17.363L11.5 21.5" stroke="#404040" stroke-width="2.5" stroke-linecap="round"/>
</svg>
