<svg width="13" height="13" viewBox="0 0 13 13" fill="none">
<path fill-rule="evenodd" clip-rule="evenodd" d="M9.63173 0.43934C10.2175 -0.146447 11.1673 -0.146447 11.753 0.43934C12.3388 1.02513 12.3388 1.97487 11.753 2.56066L8.27818 6.03553L11.8744 9.63173C12.4602 10.2175 12.4602 11.1673 11.8744 11.753C11.2886 12.3388 10.3388 12.3388 9.75305 11.753L6.15686 8.15685L2.56066 11.753C1.97487 12.3388 1.02513 12.3388 0.43934 11.753C-0.146447 11.1673 -0.146447 10.2175 0.43934 9.63173L4.03554 6.03553L0.560663 2.56066C-0.0251234 1.97487 -0.0251234 1.02513 0.560663 0.43934C1.14645 -0.146447 2.0962 -0.146447 2.68198 0.43934L6.15686 3.91421L9.63173 0.43934Z" fill="#767676"/>
</svg>
