<svg width="25" height="25" viewBox="0 0 25 25" fill="none" xmlns="http://www.w3.org/2000/svg">
<path fill-rule="evenodd" clip-rule="evenodd" d="M17 3H8C5.23858 3 3 5.23858 3 8V17C3 19.7614 5.23858 22 8 22H17C19.7614 22 22 19.7614 22 17V8C22 5.23858 19.7614 3 17 3ZM8 0C3.58172 0 0 3.58172 0 8V17C0 21.4183 3.58172 25 8 25H17C21.4183 25 25 21.4183 25 17V8C25 3.58172 21.4183 0 17 0H8ZM13 10.5C11.6193 10.5 10.5 11.6193 10.5 13C10.5 14.3807 11.6193 15.5 13 15.5C14.3807 15.5 15.5 14.3807 15.5 13C15.5 11.6193 14.3807 10.5 13 10.5ZM7.5 13C7.5 9.96243 9.96243 7.5 13 7.5C16.0376 7.5 18.5 9.96243 18.5 13C18.5 16.0376 16.0376 18.5 13 18.5C9.96243 18.5 7.5 16.0376 7.5 13ZM18.5 8C19.3284 8 20 7.32843 20 6.5C20 5.67157 19.3284 5 18.5 5C17.6716 5 17 5.67157 17 6.5C17 7.32843 17.6716 8 18.5 8Z" fill="#464646"/>
</svg>
