<svg width="16" height="16" viewBox="0 0 16 16" fill="none" xmlns="http://www.w3.org/2000/svg">
<path fill-rule="evenodd" clip-rule="evenodd" d="M9.45083 11.293C7.12325 12.948 3.87379 12.732 1.78682 10.645C-0.541063 8.31714 -0.541063 4.54289 1.78682 2.21501C4.11471 -0.112876 7.88895 -0.112876 10.2168 2.21501C12.3037 4.30189 12.5198 7.55115 10.865 9.87871L14.7114 13.7251C15.1019 14.1156 15.1019 14.7488 14.7114 15.1393C14.3209 15.5298 13.6877 15.5298 13.2972 15.1393L9.45083 11.293ZM8.80263 9.23081C7.25579 10.7776 4.74787 10.7776 3.20104 9.23081C1.6542 7.68398 1.6542 5.17606 3.20104 3.62922C4.74787 2.08239 7.25579 2.08239 8.80263 3.62922C10.3495 5.17606 10.3495 7.68398 8.80263 9.23081Z" fill="white"/>
</svg>
